<svg xmlns="http://www.w3.org/2000/svg" width="33.141" height="33.141" viewBox="0 0 33.141 33.141">
  <g id="Group_21629" data-name="Group 21629" transform="translate(-491.429 -161.43)">
    <path id="Path_26033" data-name="Path 26033" d="M31.274.867A2.937,2.937,0,0,0,29.182,0H17.914a2.94,2.94,0,0,0-2.092.867L.867,15.822a2.958,2.958,0,0,0,0,4.184L12.134,31.273a2.958,2.958,0,0,0,4.185,0L31.274,16.318a2.94,2.94,0,0,0,.867-2.092V2.959A2.937,2.937,0,0,0,31.274.867ZM26.156,6.926a.942.942,0,1,1,.942-.942A.942.942,0,0,1,26.156,6.926Z" transform="translate(491.929 161.93)" fill="#70706f" stroke="rgba(0,0,0,0)" stroke-width="1"/>
    <path id="Path_26034" data-name="Path 26034" d="M109.188,44.215a2.958,2.958,0,0,0,4.185,0L128.328,29.26a2.94,2.94,0,0,0,.867-2.092V15.9a2.936,2.936,0,0,0-.866-2.092h0l-4.452,4.452a.941.941,0,1,1-1.331,1.331l-18.99,18.99Z" transform="translate(394.875 148.988)" fill="#70706f" stroke="rgba(0,0,0,0)" stroke-width="1"/>
    <path id="Path_26035" data-name="Path 26035" d="M211.827,123.9a2.959,2.959,0,1,0-2.959-2.959A2.962,2.962,0,0,0,211.827,123.9Zm0-4.034a1.076,1.076,0,1,1-1.076,1.076A1.077,1.077,0,0,1,211.827,119.861Z" transform="translate(296.173 51.357)" fill="#fff"/>
    <path id="Path_26036" data-name="Path 26036" d="M211.827,299.754a2.959,2.959,0,1,0,2.959,2.959A2.962,2.962,0,0,0,211.827,299.754Zm0,4.034a1.076,1.076,0,1,1,1.076-1.076A1.077,1.077,0,0,1,211.827,303.788Z" transform="translate(296.173 -119.008)" fill="#fff"/>
    <path id="Path_26037" data-name="Path 26037" d="M157.646,241h-12.1a.942.942,0,1,0,0,1.883h12.1a.942.942,0,0,0,0-1.883Z" transform="translate(356.404 -63.94)" fill="#fff"/>
    <path id="Path_26038" data-name="Path 26038" d="M247.994,242.882a.942.942,0,1,0,0-1.883h-5.11L241,242.882Z" transform="translate(266.057 -63.94)" fill="#fff"/>
  </g>
</svg>
