<svg xmlns="http://www.w3.org/2000/svg" width="15.652" height="15.652" viewBox="0 0 15.652 15.652">
  <g id="Group_768" data-name="Group 768" transform="translate(-19 -19)">
    <g id="Group_767" data-name="Group 767" transform="translate(19 19)">
      <path id="Path_25971" data-name="Path 25971" d="M41.555,19a.724.724,0,0,0-.723.723v8.254L38.064,25.21a.724.724,0,0,0-1.023,1.023l4,4a.724.724,0,0,0,1.023,0l4-4a.724.724,0,1,0-1.023-1.023l-2.767,2.768V19.723A.724.724,0,0,0,41.555,19Z" transform="translate(-33.728 -19)" fill="#1f254c"/>
      <path id="Path_25972" data-name="Path 25972" d="M19.723,74a.723.723,0,0,0-.723.723v2.384a2.982,2.982,0,0,0,2.979,2.979h9.7a2.982,2.982,0,0,0,2.979-2.979V74.728a.723.723,0,1,0-1.447,0v2.384a1.533,1.533,0,0,1-1.532,1.532h-9.7a1.533,1.533,0,0,1-1.532-1.532V74.728A.723.723,0,0,0,19.723,74Z" transform="translate(-19 -64.439)" fill="#1a58f2"/>
    </g>
  </g>
</svg>
