<svg xmlns="http://www.w3.org/2000/svg" width="36.222" height="37.306" viewBox="0 0 36.222 37.306">
  <g id="Group_21468" data-name="Group 21468" transform="translate(-7.153 0.5)">
    <g id="Group_21467" data-name="Group 21467" transform="translate(7.653)">
      <path id="Path_26074" data-name="Path 26074" d="M152.127,22.273a11.137,11.137,0,1,0-11.048-11.137A11.105,11.105,0,0,0,152.127,22.273Zm-3.55-7.662a1.063,1.063,0,0,1,1.472-.308,2.66,2.66,0,0,0,1.931.5,1.576,1.576,0,0,0,1.564-1.329,1.191,1.191,0,0,0-.864-1.4,10.941,10.941,0,0,1-3-1.445,2.806,2.806,0,0,1-.934-2.763,3.136,3.136,0,0,1,2.153-2.457l.03-.008v-.4a1.063,1.063,0,0,1,2.126,0v.336A4,4,0,0,1,154.48,6a1.063,1.063,0,1,1-1.273,1.7,1.879,1.879,0,0,0-1.7-.248,1.032,1.032,0,0,0-.677.815.737.737,0,0,0,.157.7,9.482,9.482,0,0,0,2.4,1.113,3.316,3.316,0,0,1,2.252,3.753,3.767,3.767,0,0,1-1.16,2.14,3.6,3.6,0,0,1-1.43.81v.483a1.063,1.063,0,0,1-2.126,0v-.377a4.467,4.467,0,0,1-2.039-.8,1.063,1.063,0,0,1-.308-1.472Z" transform="translate(-131.623)" fill="#70706f" stroke="rgba(0,0,0,0)" stroke-width="1"/>
      <path id="Path_26075" data-name="Path 26075" d="M11.14,364.694H8.716a1.063,1.063,0,0,0-1.063,1.063v8.333a1.063,1.063,0,0,0,1.063,1.063H11.14v-10.46Z" transform="translate(-7.653 -338.849)" fill="#70706f" stroke="rgba(0,0,0,0)" stroke-width="1"/>
      <path id="Path_26076" data-name="Path 26076" d="M116.15,319.446a5.116,5.116,0,0,0-7.227,0l-3.184,3.184-1.305,1.305a2.813,2.813,0,0,1-1.989.824H96.1A1.084,1.084,0,0,1,95,323.747a1.065,1.065,0,0,1,1.063-1.116h6.451a2.678,2.678,0,0,0,2.645-2.2,5.244,5.244,0,0,0,.078-.9,1.065,1.065,0,0,0-1.065-1.065h-3.535a8.355,8.355,0,0,1-3.439-1.079,11,11,0,0,0-4-1.283,11.252,11.252,0,0,0-3.881.423,3.441,3.441,0,0,0-2.461,3h-.014v10.452l18.314.005A4.684,4.684,0,0,0,108.5,328.6l7.649-7.649a1.064,1.064,0,0,0,0-1.505Z" transform="translate(-81.24 -293.675)" fill="#70706f" stroke="rgba(0,0,0,0)" stroke-width="1"/>
    </g>
  </g>
</svg>
