<svg id="Group_21460" data-name="Group 21460" xmlns="http://www.w3.org/2000/svg" width="35.803" height="32.223" viewBox="0 0 35.803 32.223">
  <g id="users-three-Filled" transform="translate(0)">
    <path id="users-three-Filled-2" data-name="users-three-Filled" d="M75.516,70.641a6.612,6.612,0,0,1-4.672,6.319,10.582,10.582,0,0,0,.465-3.115,10.724,10.724,0,0,0-5.246-9.219A6.742,6.742,0,0,1,68.893,64,6.635,6.635,0,0,1,75.516,70.641Zm-1.343,8.217a2.945,2.945,0,0,0-2.238.269,5.957,5.957,0,0,1-2.488.734,9.128,9.128,0,0,1-1.253,1.522,9.711,9.711,0,0,1,6.552,7.68h1.235a2.2,2.2,0,0,0,1.951-1.128,4.568,4.568,0,0,0,.537-2.166V84.5A5.8,5.8,0,0,0,74.174,78.859Zm-19.1-14.232A6.742,6.742,0,0,0,52.244,64a6.628,6.628,0,0,0-1.951,12.961,10.581,10.581,0,0,1-.466-3.115,10.724,10.724,0,0,1,5.246-9.219Zm-2.13,16.756a9.128,9.128,0,0,1-1.253-1.522,5.956,5.956,0,0,1-2.488-.734,2.945,2.945,0,0,0-2.238-.269,5.8,5.8,0,0,0-4.3,5.639v1.271a4.568,4.568,0,0,0,.537,2.166,2.192,2.192,0,0,0,1.933,1.128H46.39a9.711,9.711,0,0,1,6.552-7.68Zm14.035,2.435a4.175,4.175,0,0,0-.949-.125,3.635,3.635,0,0,0-1.772.465,7.641,7.641,0,0,1-7.376,0,3.635,3.635,0,0,0-1.772-.465,4.175,4.175,0,0,0-.949.125,7.08,7.08,0,0,0-5.227,6.856v1.558a5.5,5.5,0,0,0,.662,2.614,2.6,2.6,0,0,0,2.345,1.378H69.2a2.6,2.6,0,0,0,2.345-1.378,5.5,5.5,0,0,0,.662-2.614V90.673A7.08,7.08,0,0,0,66.977,83.817Zm1.647-9.971A8.056,8.056,0,1,0,60.568,81.9,8.056,8.056,0,0,0,68.624,73.846Z" transform="translate(-42.667 -64)" fill="#9ea2b4"/>
  </g>
</svg>
