<svg xmlns="http://www.w3.org/2000/svg" width="146.516" height="146.517" viewBox="0 0 146.516 146.517">
  <path id="Forma_1_copy_6" data-name="Forma 1 copy 6" d="M2379.888,1384.747h6.982v6.978h6.981v6.978H2358.96v-6.978h6.98V1377.77H2379.9v6.978Zm90.711,62.789h6.968v-6.978H2470.6Zm-83.734-62.789h6.98v-6.978h-6.98Zm97.67,62.789h6.978v-6.978h-6.978Zm-83.707,6.977h13.949v-6.977h-13.949Zm62.783,0v-6.977h-6.978v6.977Zm-27.9,0h6.978v-13.955h-6.978Zm-55.822-90.7v6.978h20.931v-6.978Zm-6.971,6.973v-6.977h-13.962v13.957h6.98v-6.98Zm20.928-13.95h-48.837V1308h48.837Zm-6.98-41.859h-34.889v34.879h34.889Zm-27.911,125.578h20.928v-20.933h-20.928Zm69.768-6.978v6.978h6.987v-6.978Zm-48.835-111.622H2358.96v20.923h20.928ZM2491.514,1308v48.839h-48.835V1308Zm-6.978,6.98h-34.88v34.879h34.88ZM2345,1405.67h48.844V1454.5H2345Zm6.985,41.866h34.888v-34.888h-34.888Zm0-83.719H2345V1398.7h6.985Zm90.7,34.886v6.968h6.978V1398.7Zm-20.933,27.9v-6.978h-6.978v6.978h-13.948v13.965h13.948v6.978h6.978v-13.965h6.978V1426.6Zm-20.916-90.692h13.949v-6.987h-13.949Zm55.805,55.814H2470.6v6.978h6.973v-20.923H2470.6v-13.963h-6.987v20.93h-20.919v6.978h6.978v6.978h6.983v-6.978Zm6.978,20.923h-6.978v-6.978h-6.978v13.955h-20.933v6.978h13.969v13.965h6.978v6.978h6.983v-13.965h27.9V1426.6h-20.928v-13.955Zm0,0h6.987V1398.7h-6.987Zm-55.816,0v-6.978h6.971V1398.7h6.978v-6.987h6.978V1377.76h20.933V1363.8h-6.978v6.978H2435.7v-27.91h-6.978V1328.91h6.978V1308h-6.978v13.957h-6.983V1308h-20.926v13.957h6.978v-6.977h6.97v13.948h6.978v20.93h6.983v6.977h-6.983v13.958h-6.978v-13.95h-6.97v-6.98h-6.978v13.957h6.978v6.978h-6.978v20.931h6.978V1377.77h6.97v13.955h-6.97v6.978h-6.978v20.923h13.948v-6.977Zm76.74,6.977v-6.977H2470.59v6.977Zm-6.978-97.667h-20.924v20.923h20.924Zm-55.812,90.69h13.965v-6.978h-6.987V1398.7h-6.978Zm13.965-13.946v-6.978h-6.987v6.978Zm41.848-27.913h13.956v-6.977h-13.956Zm6.978,55.813h6.978v-6.978h-6.978Zm0-41.856h6.978v-6.978h-6.978Zm-62.791-34.888h-6.978v6.98h6.978Z" transform="translate(-2344.997 -1307.996)" fill="#1f254c"/>
</svg>
