<svg xmlns="http://www.w3.org/2000/svg" width="47.586" height="40.012" viewBox="0 0 47.586 40.012">
  <g id="Group_21459" data-name="Group 21459" transform="translate(-2.011 0.5)">
    <path id="Path_26059" data-name="Path 26059" d="M154.891,131.879a12.735,12.735,0,1,1-12.734-12.735A12.734,12.734,0,0,1,154.891,131.879Zm0,0" transform="translate(-116.352 -106.403)" fill="#70706f" stroke="rgba(0,0,0,0)" stroke-width="1"/>
    <path id="Path_26067" data-name="Path 26067" d="M369.754,92.734l1.756,1.4-.6,2.166a1.131,1.131,0,0,0,1.715,1.246l1.876-1.236,1.876,1.236A1.132,1.132,0,0,0,378.1,96.3l-.6-2.166,1.756-1.4a1.132,1.132,0,0,0-.655-2.016l-2.245-.1-.791-2.1a1.133,1.133,0,0,0-2.12,0l-.791,2.1-2.245.1a1.133,1.133,0,0,0-.655,2.017Zm3.5-.541a.8.8,0,0,0,.714-.519l.536-1.424.535,1.424a.8.8,0,0,0,.714.519l1.52.069-1.189.949a.8.8,0,0,0-.273.84l.4,1.467-1.271-.838a.8.8,0,0,0-.883,0l-1.271.838.4-1.467a.8.8,0,0,0-.273-.84l-1.189-.949Zm0,0" transform="translate(-330.603 -78.391)" fill="#70706f" stroke="rgba(0,0,0,0)" stroke-width="1"/>
    <path id="Path_26068" data-name="Path 26068" d="M31.279,92.734l1.756,1.4-.6,2.167a1.132,1.132,0,0,0,1.715,1.246l1.876-1.236,1.876,1.236A1.132,1.132,0,0,0,39.621,96.3l-.6-2.166,1.756-1.4a1.133,1.133,0,0,0-.655-2.017l-2.245-.1-.791-2.1a1.133,1.133,0,0,0-2.12,0l-.791,2.1-2.245.1a1.133,1.133,0,0,0-.655,2.017Zm3.5-.541a.8.8,0,0,0,.714-.519l.536-1.424.536,1.424a.8.8,0,0,0,.714.519l1.52.069-1.189.949a.8.8,0,0,0-.273.84l.4,1.467-1.271-.838a.8.8,0,0,0-.883,0l-1.271.838.4-1.467a.8.8,0,0,0-.273-.84l-1.189-.949Zm0,0" transform="translate(-28.323 -78.391)" fill="#70706f" stroke="rgba(0,0,0,0)" stroke-width="1"/>
    <path id="Path_26069" data-name="Path 26069" d="M200.516,4.956l1.756,1.4-.6,2.166A1.132,1.132,0,0,0,203.39,9.77l1.876-1.236,1.876,1.237a1.133,1.133,0,0,0,1.715-1.246l-.6-2.166,1.756-1.4a1.132,1.132,0,0,0-.655-2.016l-2.245-.1-.791-2.1a1.132,1.132,0,0,0-2.12,0l-.791,2.1-2.245.1a1.132,1.132,0,0,0-.655,2.016Zm3.5-.54a.8.8,0,0,0,.714-.519l.536-1.424L205.8,3.9a.8.8,0,0,0,.714.519l1.52.069-1.189.95a.8.8,0,0,0-.273.84l.4,1.467-1.27-.838a.8.8,0,0,0-.883,0l-1.271.838.4-1.467a.8.8,0,0,0-.273-.84l-1.189-.95Zm0,0" transform="translate(-179.462 0)" fill="#70706f" stroke="rgba(0,0,0,0)" stroke-width="1"/>
    <path id="Path_26070" data-name="Path 26070" d="M149,125.181a13.537,13.537,0,1,0-13.536,13.536A13.552,13.552,0,0,0,149,125.181Zm-13.536,11.932a11.933,11.933,0,1,1,11.932-11.932A11.946,11.946,0,0,1,135.459,137.113Zm0,0" transform="translate(-109.654 -99.705)" fill="#70706f" stroke="rgba(0,0,0,0)" stroke-width="1"/>
    <path id="Path_26073" data-name="Path 26073" d="M224.739,197.394c.3,0,.593-.218.593-.455v-.672a3.829,3.829,0,0,0,3.6-4.071c0-2.688-1.877-3.558-3.6-4.19v-4.012c1.383.1,1.9.731,2.372.731.593,0,.87-.751.87-1.126,0-.968-1.9-1.383-3.241-1.423v-.533c0-.237-.3-.455-.593-.455a.522.522,0,0,0-.573.455v.573c-1.877.2-3.755,1.186-3.755,3.676,0,2.53,1.976,3.242,3.755,3.874v4.644c-2.016-.158-2.55-1.541-3.2-1.541-.494,0-.909.652-.909,1.126,0,.968,1.66,2.292,4.111,2.332v.613A.523.523,0,0,0,224.739,197.394Zm.474-7.194a2.311,2.311,0,0,1,1.739,2.214,1.879,1.879,0,0,1-1.739,1.956Zm-2.826-4.506c0-1.028.79-1.522,1.9-1.661v3.6C223.237,187.236,222.387,186.82,222.387,185.694Zm0,0" transform="translate(-198.714 -164.408)" fill="#fff"/>
  </g>
</svg>
