<?xml version="1.0" standalone="no"?>
<!DOCTYPE svg PUBLIC "-//W3C//DTD SVG 20010904//EN"
 "http://www.w3.org/TR/2001/REC-SVG-20010904/DTD/svg10.dtd">
<svg version="1.0" xmlns="http://www.w3.org/2000/svg"
 width="99.000000pt" height="99.000000pt" viewBox="0 0 99.000000 99.000000"
 preserveAspectRatio="xMidYMid meet">
<metadata>
Created by potrace 1.14, written by Peter Selinger 2001-2017
</metadata>
<g transform="translate(0.000000,99.000000) scale(0.100000,-0.100000)"
fill="#000000" stroke="none">
<path d="M380 926 c-58 -35 -149 -89 -204 -120 l-98 -58 86 -49 c47 -27 89
-49 94 -49 4 0 58 29 120 65 l113 66 114 -66 c63 -36 118 -65 123 -65 14 0
172 91 172 99 0 6 -404 242 -411 240 -2 0 -51 -29 -109 -63z"/>
<path d="M60 478 l0 -233 90 -52 90 -52 -2 236 -3 236 -80 48 c-44 27 -83 48
-87 49 -5 0 -8 -105 -8 -232z"/>
<path d="M833 662 l-83 -47 0 -135 0 -135 -40 -23 c-21 -12 -43 -22 -48 -22
-5 0 -41 -19 -81 -41 l-71 -42 0 -109 c0 -92 2 -107 13 -96 8 7 100 63 205
123 l192 110 0 233 c0 127 -1 232 -2 232 -2 0 -40 -22 -85 -48z"/>
<path d="M426 606 l-59 -33 62 -37 62 -36 60 32 c32 18 59 36 59 40 0 7 -105
68 -117 68 -5 0 -35 -15 -67 -34z"/>
<path d="M360 488 l1 -73 64 -37 65 -36 0 73 0 73 -61 36 c-33 20 -62 36 -65
36 -2 0 -4 -33 -4 -72z"/>
<path d="M560 526 l-55 -32 -3 -72 c-2 -40 0 -72 4 -72 3 0 33 16 65 36 l59
35 0 70 c0 38 -3 69 -7 69 -5 -1 -33 -16 -63 -34z"/>
<path d="M350 187 l0 -103 63 -37 62 -36 3 101 c2 75 -1 104 -10 110 -7 4 -37
21 -65 38 l-53 30 0 -103z"/>
</g>
</svg>
