<svg id="Group_764" data-name="Group 764" xmlns="http://www.w3.org/2000/svg" width="15.715" height="15.715" viewBox="0 0 15.715 15.715">
  <path id="Path_25970" data-name="Path 25970" d="M13.873,15.715H5.525a1.844,1.844,0,0,1-1.842-1.842V5.525A1.844,1.844,0,0,1,5.525,3.683h8.349a1.844,1.844,0,0,1,1.842,1.842v8.349A1.844,1.844,0,0,1,13.873,15.715ZM5.525,4.911a.615.615,0,0,0-.614.614v8.349a.615.615,0,0,0,.614.614h8.349a.615.615,0,0,0,.614-.614V5.525a.615.615,0,0,0-.614-.614ZM2.455,10.8H1.842a.615.615,0,0,1-.614-.614V1.842a.615.615,0,0,1,.614-.614H10.19a.615.615,0,0,1,.614.614v.583h1.228V1.842A1.844,1.844,0,0,0,10.19,0H1.842A1.844,1.844,0,0,0,0,1.842V10.19a1.844,1.844,0,0,0,1.842,1.842h.614Zm0,0" fill="#1a58f2"/>
</svg>
